<?xml version="1.0" encoding="utf-8"?>
<!-- Generator: Adobe Illustrator 16.0.0, SVG Export Plug-In . SVG Version: 6.00 Build 0)  -->
<!DOCTYPE svg PUBLIC "-//W3C//DTD SVG 1.1//EN" "http://www.w3.org/Graphics/SVG/1.1/DTD/svg11.dtd">
<svg version="1.1" id="Capa_1" xmlns="http://www.w3.org/2000/svg" xmlns:xlink="http://www.w3.org/1999/xlink" x="0px" y="0px"
	 width="22px" height="22px" viewBox="0 0 22 22" enable-background="new 0 0 22 22" xml:space="preserve">
<g id="svg15246" xmlns:rdf="http://www.w3.org/1999/02/22-rdf-syntax-ns#" xmlns:cc="http://creativecommons.org/ns#" xmlns:sodipodi="http://sodipodi.sourceforge.net/DTD/sodipodi-0.dtd" xmlns:inkscape="http://www.inkscape.org/namespaces/inkscape" xmlns:dc="http://purl.org/dc/elements/1.1/" xmlns:svg="http://www.w3.org/2000/svg" sodipodi:docname="PJ3410.svg" inkscape:version="0.92.2 5c3e80d, 2017-08-06">
	
		<sodipodi:namedview  units="px" showgrid="false" fit-margin-left="0" fit-margin-top="0" inkscape:zoom="3.959798" inkscape:cy="-37.491484" pagecolor="#ffffff" bordercolor="#666666" borderopacity="1.0" inkscape:cx="6.9359976" id="base" inkscape:pageshadow="2" fit-margin-right="0" inkscape:pageopacity="0.0" inkscape:document-units="mm" inkscape:current-layer="layer1" fit-margin-bottom="0" inkscape:window-width="1274" inkscape:window-height="1434" inkscape:window-x="1280" inkscape:window-y="0" inkscape:window-maximized="0">
		</sodipodi:namedview>
	<g id="layer1" transform="translate(-74.416306,-97.613551)" inkscape:label="Layer 1" inkscape:groupmode="layer">
		
			<linearGradient id="path7757_1_" gradientUnits="userSpaceOnUse" x1="74.7845" y1="108.6135" x2="96.0491" y2="108.6135" gradientTransform="matrix(-4.371139e-008 1 -1 -4.371139e-008 194.0308 23.1968)">
			<stop  offset="0" style="stop-color:#FFF36A"/>
			<stop  offset="1" style="stop-color:#D89D00"/>
		</linearGradient>
		<path id="path7757" inkscape:connector-curvature="0" fill="url(#path7757_1_)" stroke="#0E0B00" d="M85.431,97.982
			c-5.901,0.031-10.616,4.742-10.645,10.642c0.02,5.875,4.762,10.628,10.645,10.622c5.867-0.006,10.604-4.756,10.617-10.622
			C96.026,102.732,91.326,98.025,85.431,97.982"/>
		<path id="path18715" inkscape:connector-curvature="0" fill="#FFC440" stroke="#000407" stroke-width="0.25" d="M77.335,108.605
			c0.022,4.486,3.604,8.066,8.091,8.091c4.464-0.019,8.076-3.619,8.072-8.091c0-4.464-3.613-8.062-8.072-8.072
			C80.948,100.549,77.369,104.123,77.335,108.605"/>
		
			<linearGradient id="SVGID_1_" gradientUnits="userSpaceOnUse" x1="6890.6274" y1="686.4817" x2="7011.2524" y2="686.4817" gradientTransform="matrix(-4.371139e-008 0.114 1 4.981646e-009 -601.0527 -684.999)">
			<stop  offset="0" style="stop-color:#050505;stop-opacity:0.7"/>
			<stop  offset="0.1799" style="stop-color:#412B13;stop-opacity:0.664"/>
			<stop  offset="0.4015" style="stop-color:#845622;stop-opacity:0.6197"/>
			<stop  offset="0.6024" style="stop-color:#B9782F;stop-opacity:0.5795"/>
			<stop  offset="0.7754" style="stop-color:#DF9138;stop-opacity:0.5449"/>
			<stop  offset="0.9137" style="stop-color:#F6A03D;stop-opacity:0.5173"/>
			<stop  offset="1" style="stop-color:#FFA53F;stop-opacity:0.5"/>
		</linearGradient>
		<ellipse fill="url(#SVGID_1_)" cx="85.429" cy="107.408" rx="7.491" ry="6.876"/>
		<path id="path7759" inkscape:connector-curvature="0" d="M79.746,108.607c0.017,3.147,2.527,5.66,5.677,5.676
			c3.133-0.013,5.668-2.539,5.663-5.676c0-3.133-2.534-5.656-5.663-5.664C82.281,102.955,79.771,105.463,79.746,108.607"/>
	</g>
</g>
<g id="Capa_2">
</g>
</svg>
