<?xml version="1.0" encoding="utf-8"?>
<!-- Generator: Adobe Illustrator 16.0.0, SVG Export Plug-In . SVG Version: 6.00 Build 0)  -->
<!DOCTYPE svg PUBLIC "-//W3C//DTD SVG 1.1//EN" "http://www.w3.org/Graphics/SVG/1.1/DTD/svg11.dtd">
<svg version="1.1" id="Capa_1" xmlns="http://www.w3.org/2000/svg" xmlns:xlink="http://www.w3.org/1999/xlink" x="0px" y="0px"
	 width="22px" height="22px" viewBox="0 0 22 22" enable-background="new 0 0 22 22" xml:space="preserve">
<g id="svg15246" inkscape:version="0.92.2 5c3e80d, 2017-08-06" sodipodi:docname="PJ3410.svg" xmlns:dc="http://purl.org/dc/elements/1.1/" xmlns:cc="http://creativecommons.org/ns#" xmlns:rdf="http://www.w3.org/1999/02/22-rdf-syntax-ns#" xmlns:svg="http://www.w3.org/2000/svg" xmlns:sodipodi="http://sodipodi.sourceforge.net/DTD/sodipodi-0.dtd" xmlns:inkscape="http://www.inkscape.org/namespaces/inkscape">
	
		<sodipodi:namedview  units="px" inkscape:window-maximized="0" inkscape:window-y="0" inkscape:window-x="1280" inkscape:window-height="1434" inkscape:window-width="1274" fit-margin-bottom="0" inkscape:current-layer="layer1" inkscape:document-units="mm" inkscape:pageopacity="0.0" fit-margin-right="0" inkscape:pageshadow="2" fit-margin-left="0" fit-margin-top="0" showgrid="false" inkscape:cy="-37.491484" inkscape:cx="6.9359976" inkscape:zoom="3.959798" borderopacity="1.0" bordercolor="#666666" pagecolor="#ffffff" id="base">
		</sodipodi:namedview>
	<g id="layer1" transform="translate(-74.416306,-97.613551)" inkscape:groupmode="layer" inkscape:label="Layer 1">
		<path id="path7757" inkscape:connector-curvature="0" fill="#A3A3A3" stroke="#0E0B00" d="M74.785,108.6
			c0.031,5.901,4.742,10.616,10.642,10.645c5.875-0.02,10.629-4.762,10.622-10.645c-0.006-5.867-4.756-10.603-10.622-10.617
			C79.535,98.005,74.828,102.705,74.785,108.6"/>
		
			<linearGradient id="SVGID_1_" gradientUnits="userSpaceOnUse" x1="3446.8979" y1="-267.8672" x2="3561.687" y2="-267.8672" gradientTransform="matrix(-4.371139e-008 0.114 -1 -4.981646e-009 -182.4389 -292.4141)">
			<stop  offset="0" style="stop-color:#050505;stop-opacity:0.5"/>
			<stop  offset="1" style="stop-color:#6E6E6E;stop-opacity:0.5"/>
		</linearGradient>
		<ellipse fill="url(#SVGID_1_)" cx="85.429" cy="107.075" rx="7.491" ry="6.543"/>
		<path id="path7759" inkscape:connector-curvature="0" d="M79.746,108.607c0.017,3.147,2.527,5.66,5.677,5.676
			c3.133-0.012,5.668-2.539,5.663-5.676c0-3.133-2.534-5.656-5.663-5.664C82.281,102.955,79.771,105.463,79.746,108.607"/>
		<path id="path18715" inkscape:connector-curvature="0" fill="none" stroke="#000407" stroke-width="0.25" d="M77.335,108.605
			c0.022,4.486,3.604,8.066,8.091,8.09c4.464-0.018,8.076-3.619,8.072-8.09c0-4.464-3.613-8.062-8.072-8.072
			C80.948,100.549,77.369,104.123,77.335,108.605"/>
	</g>
</g>
<g id="Capa_2">
</g>
</svg>
