<?xml version="1.0" encoding="utf-8"?>
<!-- Generator: Adobe Illustrator 16.0.0, SVG Export Plug-In . SVG Version: 6.00 Build 0)  -->
<!DOCTYPE svg PUBLIC "-//W3C//DTD SVG 1.1//EN" "http://www.w3.org/Graphics/SVG/1.1/DTD/svg11.dtd">
<svg version="1.1" xmlns="http://www.w3.org/2000/svg" xmlns:xlink="http://www.w3.org/1999/xlink" x="0px" y="0px" width="18px"
	 height="34.084px" viewBox="0 -4.875 18 34.084" enable-background="new 0 -4.875 18 34.084" xml:space="preserve">
<g id="svg10" xmlns:rdf="http://www.w3.org/1999/02/22-rdf-syntax-ns#" xmlns:cc="http://creativecommons.org/ns#" xmlns:sodipodi="http://sodipodi.sourceforge.net/DTD/sodipodi-0.dtd" xmlns:inkscape="http://www.inkscape.org/namespaces/inkscape" xmlns:dc="http://purl.org/dc/elements/1.1/" xmlns:svg="http://www.w3.org/2000/svg" sodipodi:docname="as-SlidePotHandle.svg" inkscape:version="0.92.2 5c3e80d, 2017-08-06" display="none">
	
		<sodipodi:namedview  showgrid="false" inkscape:zoom="28.962884" inkscape:cy="12.864919" pagecolor="#ffffff" bordercolor="#666666" borderopacity="1" inkscape:cx="-4.288899" id="namedview12" inkscape:pageshadow="2" inkscape:pageopacity="0" inkscape:current-layer="svg10" inkscape:window-width="1894" inkscape:window-height="1361" inkscape:window-x="136" inkscape:window-y="140" inkscape:window-maximized="0" objecttolerance="10" guidetolerance="10" gridtolerance="10">
		</sodipodi:namedview>
	<path id="rect820" display="inline" fill="#2E2E2E" stroke="#202020" stroke-linecap="round" d="M4.497-4.25h9.007
		c2.209,0,4,2.465,4,5.505v22.031c0,3.04-1.791,5.506-4,5.506H4.497c-2.209,0-4-2.466-4-5.506V1.255
		C0.497-1.785,2.288-4.25,4.497-4.25z"/>
	<path id="rect828" display="inline" fill="#FF4400" d="M5.125,11.75h7.75c0.068,0,0.125,0.056,0.125,0.125v1.25
		c0,0.068-0.057,0.125-0.125,0.125h-7.75C5.056,13.25,5,13.193,5,13.125v-1.25C5,11.806,5.056,11.75,5.125,11.75z"/>
	<g id="g1430" transform="matrix(1,0,0,-1,-20.797851,25.030773)" display="inline">
		<path id="path1424" inkscape:connector-curvature="0" fill="#424242" d="M23.06,23.508V1.572
			c-0.824,0.732-1.365,1.771-1.365,2.965v16.006C21.695,21.737,22.236,22.776,23.06,23.508z"/>
		<path id="path1422" inkscape:connector-curvature="0" fill="#424242" d="M36.809,23.281H22.787
			c0.69,0.567,1.541,0.949,2.508,0.949h9.006C35.268,24.23,36.118,23.848,36.809,23.281z"/>
		<path id="path1420" inkscape:connector-curvature="0" fill="#424242" d="M36.536,1.572v21.936
			c0.824-0.732,1.365-1.771,1.365-2.965V4.537C37.901,3.343,37.36,2.304,36.536,1.572z"/>
		<path id="rect1413" inkscape:connector-curvature="0" fill="#424242" d="M25.295,0.841c-0.965,0-1.814,0.382-2.504,0.947h14.014
			c-0.689-0.565-1.539-0.947-2.504-0.947H25.295z"/>
	</g>
</g>
<g id="Capa_2">
	<path fill="#2E2E2E" stroke="#202020" stroke-width="0.5" stroke-linecap="round" d="M17.688,26.896c0,1.104-0.895,2-2,2H2.313
		c-1.104,0-2-0.896-2-2V-2.563c0-1.104,0.896-2,2-2h13.375c1.105,0,2,0.896,2,2V26.896z"/>
	<rect x="0.313" y="11.75" fill="#EDEDED" width="17.375" height="1.167"/>
</g>
<g id="Capa_3">
	
		<linearGradient id="SVGID_1_" gradientUnits="userSpaceOnUse" x1="18.6045" y1="6.6045" x2="26.8965" y2="6.6045" gradientTransform="matrix(-4.371139e-008 1 -1 -4.371139e-008 15.6465 -2.313)">
		<stop  offset="0" style="stop-color:#FFFFFF;stop-opacity:0.4"/>
		<stop  offset="0.0168" style="stop-color:#F6F6F6;stop-opacity:0.3933"/>
		<stop  offset="0.133" style="stop-color:#BDBDBD;stop-opacity:0.3468"/>
		<stop  offset="0.2525" style="stop-color:#8B8B8B;stop-opacity:0.299"/>
		<stop  offset="0.3728" style="stop-color:#606060;stop-opacity:0.2509"/>
		<stop  offset="0.4939" style="stop-color:#3D3D3D;stop-opacity:0.2024"/>
		<stop  offset="0.6161" style="stop-color:#222222;stop-opacity:0.1536"/>
		<stop  offset="0.74" style="stop-color:#0F0F0F;stop-opacity:0.104"/>
		<stop  offset="0.8666" style="stop-color:#040404;stop-opacity:0.0534"/>
		<stop  offset="1" style="stop-color:#000000;stop-opacity:0"/>
	</linearGradient>
	<rect x="0.833" y="16.292" fill="url(#SVGID_1_)" width="16.417" height="8.292"/>
	
		<linearGradient id="SVGID_2_" gradientUnits="userSpaceOnUse" x1="24.9307" y1="6.604" x2="27.5215" y2="6.604" gradientTransform="matrix(-4.371139e-008 -1.3678 -1 5.978630e-008 15.6465 34.1424)">
		<stop  offset="0" style="stop-color:#FFFFFF;stop-opacity:0.4"/>
		<stop  offset="1" style="stop-color:#000000;stop-opacity:0"/>
	</linearGradient>
	<rect x="0.833" y="-3.5" fill="url(#SVGID_2_)" width="16.417" height="3.543"/>
	
		<linearGradient id="SVGID_3_" gradientUnits="userSpaceOnUse" x1="16.8887" y1="6.6045" x2="19.7373" y2="6.6045" gradientTransform="matrix(-4.371139e-008 2.7504 -1 -1.202235e-007 15.6465 -46.0779)">
		<stop  offset="0" style="stop-color:#000000"/>
		<stop  offset="1" style="stop-color:#000000;stop-opacity:0"/>
	</linearGradient>
	<rect x="0.833" y="0.374" fill="url(#SVGID_3_)" width="16.417" height="7.834"/>
	
		<linearGradient id="SVGID_4_" gradientUnits="userSpaceOnUse" x1="25.7363" y1="6.6045" x2="26.9492" y2="6.6045" gradientTransform="matrix(-4.371139e-008 2.7504 -1 -1.202235e-007 15.6465 -46.0779)">
		<stop  offset="0" style="stop-color:#000000"/>
		<stop  offset="1" style="stop-color:#000000;stop-opacity:0"/>
	</linearGradient>
	<rect x="0.833" y="24.709" fill="url(#SVGID_4_)" width="16.417" height="3.334"/>
	
		<linearGradient id="SVGID_5_" gradientUnits="userSpaceOnUse" x1="18.6016" y1="6.6045" x2="26.8926" y2="6.6045" gradientTransform="matrix(-4.371139e-008 -0.407 -1 1.779137e-008 15.6465 23.8634)">
		<stop  offset="0" style="stop-color:#FFFFFF;stop-opacity:0.4"/>
		<stop  offset="0.0168" style="stop-color:#F6F6F6;stop-opacity:0.3933"/>
		<stop  offset="0.133" style="stop-color:#BDBDBD;stop-opacity:0.3468"/>
		<stop  offset="0.2525" style="stop-color:#8B8B8B;stop-opacity:0.299"/>
		<stop  offset="0.3728" style="stop-color:#606060;stop-opacity:0.2509"/>
		<stop  offset="0.4939" style="stop-color:#3D3D3D;stop-opacity:0.2024"/>
		<stop  offset="0.6161" style="stop-color:#222222;stop-opacity:0.1536"/>
		<stop  offset="0.74" style="stop-color:#0F0F0F;stop-opacity:0.104"/>
		<stop  offset="0.8666" style="stop-color:#040404;stop-opacity:0.0534"/>
		<stop  offset="1" style="stop-color:#000000;stop-opacity:0"/>
	</linearGradient>
	<rect x="0.833" y="12.917" fill="url(#SVGID_5_)" width="16.417" height="3.375"/>
	
		<linearGradient id="SVGID_6_" gradientUnits="userSpaceOnUse" x1="29.7598" y1="6.6045" x2="37.4375" y2="6.6045" gradientTransform="matrix(-4.371139e-008 -0.407 -1 1.779137e-008 15.6465 23.8634)">
		<stop  offset="0" style="stop-color:#FFFFFF;stop-opacity:0.4"/>
		<stop  offset="0.0168" style="stop-color:#F6F6F6;stop-opacity:0.3933"/>
		<stop  offset="0.133" style="stop-color:#BDBDBD;stop-opacity:0.3468"/>
		<stop  offset="0.2525" style="stop-color:#8B8B8B;stop-opacity:0.299"/>
		<stop  offset="0.3728" style="stop-color:#606060;stop-opacity:0.2509"/>
		<stop  offset="0.4939" style="stop-color:#3D3D3D;stop-opacity:0.2024"/>
		<stop  offset="0.6161" style="stop-color:#222222;stop-opacity:0.1536"/>
		<stop  offset="0.74" style="stop-color:#0F0F0F;stop-opacity:0.104"/>
		<stop  offset="0.8666" style="stop-color:#040404;stop-opacity:0.0534"/>
		<stop  offset="1" style="stop-color:#000000;stop-opacity:0"/>
	</linearGradient>
	<rect x="0.833" y="8.625" fill="url(#SVGID_6_)" width="16.417" height="3.125"/>
	
		<linearGradient id="SVGID_7_" gradientUnits="userSpaceOnUse" x1="24.9316" y1="6.604" x2="27.5215" y2="6.604" gradientTransform="matrix(-4.371139e-008 0.5306 -1 -2.319439e-008 15.6465 -13.187)">
		<stop  offset="0" style="stop-color:#FFFFFF;stop-opacity:0.4"/>
		<stop  offset="1" style="stop-color:#000000;stop-opacity:0"/>
	</linearGradient>
	<rect x="0.833" y="0.042" fill="url(#SVGID_7_)" width="16.417" height="1.375"/>
	
		<linearGradient id="SVGID_8_" gradientUnits="userSpaceOnUse" x1="25.7363" y1="6.604" x2="26.9492" y2="6.604" gradientTransform="matrix(-4.371139e-008 -1.7192 -1 7.514853e-008 15.6465 68.9565)">
		<stop  offset="0" style="stop-color:#000000"/>
		<stop  offset="1" style="stop-color:#000000;stop-opacity:0"/>
	</linearGradient>
	<rect x="0.833" y="22.625" fill="url(#SVGID_8_)" width="16.417" height="2.084"/>
</g>
</svg>
