<?xml version="1.0" encoding="utf-8"?>
<!-- Generator: Adobe Illustrator 16.0.0, SVG Export Plug-In . SVG Version: 6.00 Build 0)  -->
<!DOCTYPE svg PUBLIC "-//W3C//DTD SVG 1.1//EN" "http://www.w3.org/Graphics/SVG/1.1/DTD/svg11.dtd">
<svg version="1.1" xmlns="http://www.w3.org/2000/svg" xmlns:xlink="http://www.w3.org/1999/xlink" x="0px" y="0px"
	 width="29.354px" height="29.357px" viewBox="0 0 29.354 29.357" enable-background="new 0 0 29.354 29.357" xml:space="preserve">
<filter  width="1" height="1" x="0" y="0" id="alpha-3" filterUnits="objectBoundingBox">
	<feColorMatrix  type="matrix" id="feColorMatrix4149-6" values="0 0 0 0 1 0 0 0 0 1 0 0 0 0 1 0 0 0 1 0" in="SourceGraphic">
		</feColorMatrix>
</filter>
<filter  width="1" height="1" x="0" y="0" id="alpha" filterUnits="objectBoundingBox">
	<feColorMatrix  type="matrix" id="feColorMatrix4149" values="0 0 0 0 1 0 0 0 0 1 0 0 0 0 1 0 0 0 1 0" in="SourceGraphic">
		</feColorMatrix>
</filter>
<g id="svg15246" inkscape:version="0.92.2 5c3e80d, 2017-08-06" sodipodi:docname="PJ3410.svg" xmlns:dc="http://purl.org/dc/elements/1.1/" xmlns:cc="http://creativecommons.org/ns#" xmlns:rdf="http://www.w3.org/1999/02/22-rdf-syntax-ns#" xmlns:svg="http://www.w3.org/2000/svg" xmlns:sodipodi="http://sodipodi.sourceforge.net/DTD/sodipodi-0.dtd" xmlns:inkscape="http://www.inkscape.org/namespaces/inkscape">
	<g id="g4874" transform="matrix(0.26458333,0,0,0.26458333,88.611154,119.19859)" filter="url(#alpha-3)">
		<g id="rect4872_1_">
			<rect x="3796.521" y="4319.885" opacity="0.15" width="2289.652" height="2513.625"/>
		</g>
	</g>
	<g id="g4890" transform="matrix(0.26458333,0,0,0.26458333,88.611154,119.19859)" filter="url(#alpha-3)">
		<g id="rect4888_1_">
			<rect x="3796.521" y="4319.885" opacity="0.15" width="2289.652" height="2513.625"/>
		</g>
	</g>
	<g id="g4906" transform="matrix(0.26458333,0,0,0.26458333,88.611154,119.19859)">
		<rect id="rect4904" x="614.439" y="826.534" fill-opacity="0.33" width="8653.815" height="9500.327"/>
	</g>
	<g id="g4842" transform="matrix(0.26458333,0,0,0.26458333,89.358789,128.57765)" filter="url(#alpha)">
		<g id="rect4840_1_">
			<rect x="3801.705" y="4384.922" opacity="0.15" width="2289.652" height="2513.624"/>
		</g>
	</g>
	<g id="g4858" transform="matrix(0.26458333,0,0,0.26458333,89.358789,128.57765)">
		<rect id="rect4856" x="619.623" y="891.572" fill-opacity="0.15" width="8653.815" height="9500.323"/>
	</g>
	
		<sodipodi:namedview  units="px" inkscape:window-maximized="0" inkscape:window-y="0" inkscape:window-x="1280" inkscape:window-height="1434" inkscape:window-width="1274" fit-margin-bottom="0" inkscape:current-layer="layer1" inkscape:document-units="mm" inkscape:pageopacity="0.0" fit-margin-right="0" inkscape:pageshadow="2" fit-margin-left="0" fit-margin-top="0" showgrid="false" inkscape:cy="-37.491484" inkscape:cx="6.9359976" inkscape:zoom="3.959798" borderopacity="1.0" bordercolor="#666666" pagecolor="#ffffff" id="base">
		</sodipodi:namedview>
	<g id="layer1" transform="translate(-74.416306,-97.613551)" inkscape:groupmode="layer" inkscape:label="Layer 1">
		<path id="path7751" inkscape:connector-curvature="0" fill="#D89D00" stroke="#636663" stroke-width="0.25" d="M89.091,126.616
			c-7.898-0.051-14.324-6.48-14.32-14.336s6.426-14.277,14.32-14.313c7.867,0.039,14.293,6.461,14.324,14.313
			c-0.016,7.859-6.441,14.289-14.32,14.336H89.091z"/>
		
			<linearGradient id="SVGID_1_" gradientUnits="userSpaceOnUse" x1="77.6241" y1="108.4888" x2="98.9561" y2="108.4888" gradientTransform="matrix(-4.371139e-008 -1 1 -4.371139e-008 -19.4072 197.5699)">
			<stop  offset="0" style="stop-color:#FFA53F"/>
			<stop  offset="1" style="stop-color:#FFF36A"/>
		</linearGradient>
		<ellipse fill="url(#SVGID_1_)" cx="89.081" cy="109.28" rx="12.5" ry="10.667"/>
		<path id="path7757" inkscape:connector-curvature="0" fill="#424242" stroke="#0E0B00" d="M78.45,112.28
			c0.031,5.902,4.742,10.617,10.641,10.645c5.875-0.02,10.629-4.762,10.621-10.645c-0.004-5.867-4.754-10.602-10.621-10.617
			C83.2,101.686,78.493,106.386,78.45,112.28"/>
		
			<linearGradient id="SVGID_2_" gradientUnits="userSpaceOnUse" x1="64.0733" y1="108.5" x2="178.8936" y2="108.5" gradientTransform="matrix(-4.371139e-008 0.114 1 4.981646e-009 -19.4072 96.9111)">
			<stop  offset="0" style="stop-color:#050505"/>
			<stop  offset="1" style="stop-color:#6E6E6E"/>
		</linearGradient>
		<ellipse fill="url(#SVGID_2_)" cx="89.093" cy="110.756" rx="7.492" ry="6.543"/>
		<path id="path7759" inkscape:connector-curvature="0" d="M83.411,112.288c0.016,3.148,2.527,5.66,5.676,5.676
			c3.133-0.012,5.668-2.539,5.664-5.676c0-3.133-2.535-5.656-5.664-5.664C85.946,106.636,83.435,109.144,83.411,112.288"/>
		<path id="path18715" inkscape:connector-curvature="0" fill="none" stroke="#000407" stroke-width="0.25" d="M81,112.285
			c0.022,4.487,3.603,8.067,8.09,8.09c4.465-0.018,8.077-3.619,8.072-8.09c0-4.464-3.613-8.061-8.072-8.072
			C84.613,104.23,81.034,107.804,81,112.285"/>
	</g>
</g>
<g id="Capa_2">
</g>
</svg>
