<?xml version="1.0" encoding="utf-8"?>
<!-- Generator: Adobe Illustrator 16.0.0, SVG Export Plug-In . SVG Version: 6.00 Build 0)  -->
<!DOCTYPE svg PUBLIC "-//W3C//DTD SVG 1.1//EN" "http://www.w3.org/Graphics/SVG/1.1/DTD/svg11.dtd">
<svg version="1.1" id="Capa_1" xmlns="http://www.w3.org/2000/svg" xmlns:xlink="http://www.w3.org/1999/xlink" x="0px" y="0px"
	 width="31.5px" height="31.5px" viewBox="0 0 31.5 31.5" enable-background="new 0 0 31.5 31.5" xml:space="preserve">
<g id="Capa_1_1_">
	<ellipse fill="#3C3C3B" cx="15.75" cy="15.756" rx="15.75" ry="15.755"/>
	<path fill="#1E1E1D" stroke="#000000" stroke-width="0.5" stroke-miterlimit="10" d="M25.819,25.862
		c-5.58,5.582-14.626,5.582-20.206,0c-5.579-5.582-5.579-14.631,0-20.213c5.58-5.582,14.626-5.582,20.207,0
		C31.4,11.231,31.399,20.28,25.819,25.862z"/>
	<path d="M7.865,7.872c4.354-4.322,11.382-4.294,15.7,0.062c4.321,4.356,4.294,11.388-0.06,15.708
		c-4.354,4.321-11.382,4.293-15.703-0.063C3.479,19.224,3.512,12.192,7.865,7.872z"/>
	<path fill="#FFFFFF" d="M22.544,22.56c-3.753,3.752-9.834,3.752-13.588,0c-3.752-3.757-3.752-9.84,0-13.593
		c3.752-3.753,9.835-3.753,13.586,0C26.298,12.72,26.296,18.803,22.544,22.56z"/>
</g>
<g id="Capa_2">
	<polygon fill="#FFFFFF" points="14.5,1.463 16.714,1.465 18.384,7.305 13.21,7.305 	"/>
	<path fill="#B2B2B2" stroke="#3C3C3B" stroke-width="0.25" stroke-miterlimit="10" d="M22.011,9.477
		c3.459,3.471,3.459,9.099,0,12.57c-3.463,3.472-9.074,3.472-12.535,0c-3.461-3.471-3.461-9.099,0-12.57
		C12.936,6.003,18.547,6.007,22.011,9.477z"/>
</g>
</svg>
